<?xml version="1.0" encoding="UTF-8" standalone="no"?>
<svg
   xmlns:dc="http://purl.org/dc/elements/1.1/"
   xmlns:cc="http://creativecommons.org/ns#"
   xmlns:rdf="http://www.w3.org/1999/02/22-rdf-syntax-ns#"
   xmlns:svg="http://www.w3.org/2000/svg"
   xmlns="http://www.w3.org/2000/svg"
   xmlns:sodipodi="http://sodipodi.sourceforge.net/DTD/sodipodi-0.dtd"
   xmlns:inkscape="http://www.inkscape.org/namespaces/inkscape"
   version="1.1"
   width="210.00mm"
   height="297.00mm"
   viewBox="0 0 210.00 297.00"
   id="svg26"
   sodipodi:docname="bear_papermod_page4.svg"
   inkscape:version="0.92.2 5c3e80d, 2017-08-06">
  <metadata
     id="metadata32">
    <rdf:RDF>
      <cc:Work
         rdf:about="">
        <dc:format>image/svg+xml</dc:format>
        <dc:type
           rdf:resource="http://purl.org/dc/dcmitype/StillImage" />
        <dc:title></dc:title>
      </cc:Work>
    </rdf:RDF>
  </metadata>
  <defs
     id="defs30" />
  <sodipodi:namedview
     pagecolor="#ffffff"
     bordercolor="#666666"
     borderopacity="1"
     objecttolerance="10"
     gridtolerance="10"
     guidetolerance="10"
     inkscape:pageopacity="0"
     inkscape:pageshadow="2"
     inkscape:window-width="1920"
     inkscape:window-height="985"
     id="namedview28"
     showgrid="false"
     inkscape:zoom="2.3786088"
     inkscape:cx="257.56502"
     inkscape:cy="318.30034"
     inkscape:window-x="0"
     inkscape:window-y="1"
     inkscape:window-maximized="1"
     inkscape:current-layer="svg26" />
  <style
     type="text/css"
     id="style2">
    path {
        fill: none;
        stroke-linecap: butt;
        stroke-linejoin: bevel;
        stroke-dasharray: none;
    }
    path.outer {
        stroke: #ff0000;
        stroke-dasharray: none;
        stroke-dashoffset: 0;
        stroke-width: 0.3;
        stroke-opacity: 1.0;
    }
    path.convex {
        stroke: #000000;
        stroke-dasharray: none;
        stroke-dashoffset:0;
        stroke-width:0.2;
        stroke-opacity: 1.0
    }
    path.concave {
        stroke: #000000;
        stroke-dasharray: none;
        stroke-dashoffset: 0;
        stroke-width: 0.2;
        stroke-opacity: 1.0
    }
    path.freestyle {
        stroke: #000000;
        stroke-dasharray: none;
        stroke-dashoffset: 0;
        stroke-width: 0.2;
        stroke-opacity: 1.0
    }
    path.outer_background {
        stroke: #ffffff;
        stroke-opacity: 1.0;
        stroke-width: 0.5
    }
    path.inner_background {
        stroke: #ffffff;
        stroke-opacity: 1.0;
        stroke-width: 0.2
    }
    path.sticker {
        fill: #e5e5e5;
        stroke: none;
        fill-opacity: 1.0;
    }
    path.arrow {
        fill: #000;
    }
    text {
        font-style: normal;
        fill: #000000;
        fill-opacity: 1.0;
        stroke: none;
    }
    text, tspan {
        text-anchor:middle;
    }
    </style>
  <g
     id="g24"
     style="fill:none;stroke-width:0.03527778;stroke-miterlimit:4;stroke-dasharray:none">
    <g
       id="g12"
       style="fill:none;stroke-width:0.03527778;stroke-miterlimit:4;stroke-dasharray:none">
      <path
         class="sticker"
         d=" M 75.780523 168.905879 L 81.859273 164.688866 L 103.034702 167.577746 L 105.219086 172.922070 Z M 40.795268 239.079936 L 10.488285 235.902361 L 10.488285 235.902361 L 9.567695 233.306280 Z M 9.567695 233.306280 L 5.000000 229.775063 L 6.531120 218.461181 L 11.900096 216.071497 Z M 52.754731 150.574709 L 54.599234 145.103778 L 77.989672 140.400733 L 83.137040 144.465844 Z M 11.900096 216.071497 L 14.415118 210.874575 L 34.613946 209.399919 L 41.699694 213.895912 Z M 51.381693 263.594865 L 54.693506 268.324054 L 44.252434 290.718298 L 38.500932 291.221817 Z M 103.644033 227.052416 L 103.541491 227.771888 L 74.623895 238.711576 Z "
         id="path4"
         style="fill:none;stroke-width:0.03527778;stroke-miterlimit:4;stroke-dasharray:none" />
      <path
         class="convex"
         d=" M 103.375931 209.595795 L 74.623895 238.711576 M 51.063602 189.836110 L 75.780523 168.905879 "
         id="path6"
         style="fill:none;stroke-width:0.03527778;stroke-miterlimit:4;stroke-dasharray:none" />
      <path
         class="concave"
         d=" M 83.137040 144.465844 L 52.754731 150.574709 M 105.219086 172.922070 L 75.780523 168.905879 M 41.699694 213.895912 L 40.795268 239.079936 M 41.699694 213.895912 L 103.375931 209.595795 M 40.795268 239.079936 L 74.623895 238.711576 M 103.915338 191.264669 L 51.063602 189.836110 M 9.567695 233.306280 L 40.795268 239.079936 M 41.699694 213.895912 L 11.900096 216.071497 M 41.699694 213.895912 L 74.623895 238.711576 M 51.381693 263.594865 L 74.623895 238.711576 M 11.900096 216.071497 L 9.567695 233.306280 M 103.375931 209.595795 L 51.063602 189.836110 M 51.381693 263.594865 L 9.911417 263.738842 M 38.500932 291.221817 L 51.381693 263.594865 M 103.915338 191.264669 L 75.780523 168.905879 M 74.623895 238.711576 L 103.644033 227.052416 M 51.381693 263.594865 L 40.795268 239.079936 M 52.754731 150.574709 L 75.780523 168.905879 M 105.219078 266.666225 L 74.623895 238.711576 "
         id="path8"
         style="fill:none;stroke-width:0.03527778;stroke-miterlimit:4;stroke-dasharray:none" />
      <path
         class="outer"
         d=" M 10.488285 235.902361 L 10.488285 235.902361 L 9.567695 233.306280 L 5.000000 229.775063 L 6.531120 218.461181 L 11.900096 216.071497 L 14.415118 210.874575 L 34.613946 209.399919 L 41.699694 213.895912 L 51.063602 189.836110 L 52.754731 150.574709 L 54.599234 145.103778 L 77.989672 140.400733 L 83.137040 144.465844 L 75.780523 168.905879 L 81.859273 164.688866 L 103.034702 167.577746 L 105.219086 172.922070 L 103.915338 191.264669 L 103.375931 209.595795 L 103.644033 227.052416 L 103.541491 227.771888 L 74.623895 238.711576 L 103.875284 227.645393 L 105.219078 266.666225 L 51.381693 263.594865 L 54.693506 268.324054 L 44.252434 290.718298 L 38.500932 291.221817 L 8.754792 291.999991 L 9.911417 263.738842 L 9.211576 235.768399 L 40.795268 239.079936 Z "
         id="path10"
         style="fill:none;stroke-width:0.03527778;stroke-miterlimit:4;stroke-dasharray:none" />
    </g>
    <g
       id="g22"
       style="fill:none;stroke-width:0.03527778;stroke-miterlimit:4;stroke-dasharray:none">
      <path
         class="sticker"
         d=" M 9.746698 107.820268 L 5.000000 100.980650 L 5.714033 81.964965 L 10.818832 79.267870 Z M 28.878436 104.608263 L 10.289020 108.477439 L 10.289020 108.477439 L 9.746698 107.820268 Z M 48.202266 133.506010 L 45.742502 138.729314 L 25.768041 140.400733 L 22.474411 135.658856 Z M 83.969419 117.226358 L 82.727429 123.285214 L 54.476497 136.143814 L 48.202266 133.506010 Z M 12.504425 64.189981 L 12.701971 58.419849 L 18.424545 55.372084 L 23.322846 58.428223 Z M 23.322846 58.428223 L 29.040835 59.226925 L 32.795639 68.497862 L 29.244955 73.050450 Z "
         id="path14"
         style="fill:none;stroke-width:0.03527778;stroke-miterlimit:4;stroke-dasharray:none" />
      <path
         class="convex"
         d=" M 10.818832 79.267870 L 29.244955 73.050450 M 10.818832 79.267870 L 28.878436 104.608263 M 12.504425 64.189981 L 29.244955 73.050450 M 28.878436 104.608263 L 55.077185 72.666074 "
         id="path16"
         style="fill:none;stroke-width:0.03527778;stroke-miterlimit:4;stroke-dasharray:none" />
      <path
         class="concave"
         d=" M 29.244955 73.050450 L 28.878436 104.608263 M 10.818832 79.267870 L 9.746698 107.820268 M 48.202266 133.506010 L 28.878436 104.608263 M 55.077185 72.666074 L 80.403169 101.827825 M 48.202266 133.506010 L 83.969419 117.226358 M 22.474411 135.658856 L 48.202266 133.506010 M 29.244955 73.050450 L 23.322846 58.428223 M 23.322846 58.428223 L 12.504425 64.189981 M 48.202266 133.506010 L 80.403169 101.827825 M 22.474411 135.658856 L 28.878436 104.608263 M 9.746698 107.820268 L 28.878436 104.608263 M 28.878436 104.608263 L 80.403169 101.827825 "
         id="path18"
         style="fill:none;stroke-width:0.03527778;stroke-miterlimit:4;stroke-dasharray:none" />
      <path
         class="outer"
         d=" M 9.885965 108.561273 L 28.878436 104.608263 L 10.289020 108.477439 L 10.289020 108.477439 L 9.746698 107.820268 L 5.000000 100.980650 L 5.714033 81.964965 L 10.818832 79.267870 L 12.504425 64.189981 L 12.701971 58.419849 L 18.424545 55.372084 L 23.322846 58.428223 L 29.040835 59.226925 L 32.795639 68.497862 L 29.244955 73.050450 L 55.077185 72.666074 L 83.969419 80.180491 L 80.403169 101.827825 L 83.969419 117.226358 L 82.727429 123.285214 L 54.476497 136.143814 L 48.202266 133.506010 L 45.742502 138.729314 L 25.768041 140.400733 L 22.474411 135.658856 Z "
         id="path20"
         style="fill:none;stroke-width:0.03527778;stroke-miterlimit:4;stroke-dasharray:none" />
    </g>
  </g>
</svg>
