<?xml version="1.0" encoding="UTF-8" standalone="no"?>
<svg
   xmlns:dc="http://purl.org/dc/elements/1.1/"
   xmlns:cc="http://creativecommons.org/ns#"
   xmlns:rdf="http://www.w3.org/1999/02/22-rdf-syntax-ns#"
   xmlns:svg="http://www.w3.org/2000/svg"
   xmlns="http://www.w3.org/2000/svg"
   xmlns:sodipodi="http://sodipodi.sourceforge.net/DTD/sodipodi-0.dtd"
   xmlns:inkscape="http://www.inkscape.org/namespaces/inkscape"
   version="1.1"
   width="210.00mm"
   height="297.00mm"
   viewBox="0 0 210.00 297.00"
   id="svg14"
   sodipodi:docname="bear_papermod_page1.svg"
   inkscape:version="0.92.2 5c3e80d, 2017-08-06">
  <metadata
     id="metadata20">
    <rdf:RDF>
      <cc:Work
         rdf:about="">
        <dc:format>image/svg+xml</dc:format>
        <dc:type
           rdf:resource="http://purl.org/dc/dcmitype/StillImage" />
        <dc:title></dc:title>
      </cc:Work>
    </rdf:RDF>
  </metadata>
  <defs
     id="defs18" />
  <sodipodi:namedview
     pagecolor="#ffffff"
     bordercolor="#666666"
     borderopacity="1"
     objecttolerance="10"
     gridtolerance="10"
     guidetolerance="10"
     inkscape:pageopacity="0"
     inkscape:pageshadow="2"
     inkscape:window-width="1920"
     inkscape:window-height="985"
     id="namedview16"
     showgrid="false"
     inkscape:zoom="1.1893044"
     inkscape:cx="370.74207"
     inkscape:cy="243.388"
     inkscape:window-x="0"
     inkscape:window-y="1"
     inkscape:window-maximized="1"
     inkscape:current-layer="svg14" />
  <style
     type="text/css"
     id="style2">
    path {
        fill: none;
        stroke-linecap: butt;
        stroke-linejoin: bevel;
        stroke-dasharray: none;
    }
    path.outer {
        stroke: #ff0000;
        stroke-dasharray: none;
        stroke-dashoffset: 0;
        stroke-width: 0.3;
        stroke-opacity: 1.0;
    }
    path.convex {
        stroke: #000000;
        stroke-dasharray: none;
        stroke-dashoffset:0;
        stroke-width:0.2;
        stroke-opacity: 1.0
    }
    path.concave {
        stroke: #000000;
        stroke-dasharray: none;
        stroke-dashoffset: 0;
        stroke-width: 0.2;
        stroke-opacity: 1.0
    }
    path.freestyle {
        stroke: #000000;
        stroke-dasharray: none;
        stroke-dashoffset: 0;
        stroke-width: 0.2;
        stroke-opacity: 1.0
    }
    path.outer_background {
        stroke: #ffffff;
        stroke-opacity: 1.0;
        stroke-width: 0.5
    }
    path.inner_background {
        stroke: #ffffff;
        stroke-opacity: 1.0;
        stroke-width: 0.2
    }
    path.sticker {
        fill: #e5e5e5;
        stroke: none;
        fill-opacity: 1.0;
    }
    path.arrow {
        fill: #000;
    }
    text {
        font-style: normal;
        fill: #000000;
        fill-opacity: 1.0;
        stroke: none;
    }
    text, tspan {
        text-anchor:middle;
    }
    </style>
  <g
     id="g12"
     style="fill:none;stroke-width:0.03527778;stroke-miterlimit:4;stroke-dasharray:none">
    <path
       class="sticker"
       d=" M 155.293499 167.144495 L 149.044980 166.363950 L 140.788873 144.725497 Z M 150.307496 169.673297 L 155.984004 170.727144 L 163.299312 191.404643 L 160.231938 197.725805 Z M 122.655583 116.774495 L 121.193153 111.189271 L 132.774328 99.739592 L 138.342489 101.265694 Z M 189.260830 122.439618 L 191.838165 127.605925 L 180.085440 145.371313 L 173.823510 145.774658 Z M 173.823510 145.774658 L 174.700473 152.395467 L 160.962288 168.239090 L 155.293499 167.144495 Z M 189.741616 205.364029 L 194.920485 209.302451 L 196.845730 252.880733 L 192.121659 259.236391 Z M 156.194751 102.139200 L 157.357355 94.696934 L 164.207180 89.044015 L 169.616182 91.062943 Z M 169.616182 91.062943 L 171.819185 93.293662 L 164.384459 110.111381 Z M 128.437822 73.934997 L 130.556752 68.184446 L 143.178736 64.778726 L 147.268345 68.854074 Z M 138.342489 101.265694 L 133.892735 97.184698 L 135.463615 86.585875 L 140.832816 84.463353 Z M 62.903193 291.999991 L 57.167743 291.338210 L 48.673884 271.727023 L 51.094835 264.736074 Z M 29.498932 278.339331 L 27.212846 283.640947 L 12.126903 285.406209 L 8.678610 280.775593 Z M 94.819424 183.839316 L 100.583901 184.161971 L 112.297726 207.355100 L 109.136057 212.185952 Z M 102.027264 124.589573 L 102.955383 118.891145 L 118.184668 113.121505 L 122.655583 116.774495 Z M 79.741326 148.786272 L 80.155057 143.027599 L 88.144866 139.149572 L 95.396404 141.187708 Z M 99.239965 151.951308 L 95.589389 156.424175 L 81.789677 154.184188 L 79.741326 148.786272 Z M 78.922291 190.893385 L 79.717030 185.070585 L 90.152812 180.439900 L 94.819424 183.839316 Z M 85.382466 219.653393 L 78.908292 213.645163 L 74.676526 194.805759 L 78.922291 190.893385 Z M 109.136057 212.185952 L 110.745479 210.310425 L 135.607828 215.692858 Z M 68.839652 119.225840 L 66.834555 113.811712 L 75.181586 103.749822 L 81.292448 104.214708 Z M 85.711454 119.865726 L 89.874838 115.865792 L 100.166795 118.845577 L 102.027264 124.589573 Z M 117.998113 244.835231 L 115.354051 275.601332 L 114.616481 275.926528 Z "
       id="path4"
       style="fill:none;stroke-width:0.03527778;stroke-miterlimit:4;stroke-dasharray:none" />
    <path
       class="convex"
       d=" M 109.509368 210.042763 L 150.307496 169.673297 M 140.832816 84.463353 L 156.194751 102.139200 M 102.027264 124.589573 L 95.396404 141.187708 M 164.384459 110.111381 L 156.194751 102.139200 M 95.396404 141.187708 L 79.741326 148.786272 M 99.239965 151.951308 L 95.396404 141.187708 M 99.239965 151.951308 L 122.655583 116.774495 M 169.616182 91.062943 L 156.194751 102.139200 M 97.737079 280.386593 L 117.998113 244.835231 M 65.111929 235.790978 L 51.094835 264.736074 M 85.711454 119.865726 L 95.396404 141.187708 M 122.655583 116.774495 L 164.384459 110.111381 M 196.845745 106.788824 L 164.384459 110.111381 M 85.382466 219.653393 L 94.819424 183.839316 M 138.342489 101.265694 L 156.194751 102.139200 "
       id="path6"
       style="fill:none;stroke-width:0.03527778;stroke-miterlimit:4;stroke-dasharray:none" />
    <path
       class="concave"
       d=" M 135.607828 215.692858 L 117.998113 244.835231 M 150.307496 169.673297 L 100.136985 179.700467 M 135.607828 215.692858 L 150.307496 169.673297 M 97.737079 280.386593 L 65.111929 235.790978 M 85.711454 119.865726 L 77.576716 129.715051 M 192.121659 259.236391 L 189.741616 205.364029 M 85.382466 219.653393 L 117.998113 244.835231 M 135.607828 215.692858 L 109.136057 212.185952 M 8.678610 280.775593 L 29.498932 278.339331 M 109.136057 212.185952 L 117.998113 244.835231 M 160.231938 197.725805 L 150.307496 169.673297 M 140.788873 144.725497 L 164.384459 110.111381 M 135.607828 215.692858 L 172.603746 262.566836 M 173.823510 145.774658 L 164.384459 110.111381 M 99.239965 151.951308 L 102.027264 124.589573 M 160.231938 197.725805 L 172.603746 262.566836 M 172.603746 262.566836 L 189.741616 205.364029 M 140.788873 144.725497 L 173.823510 145.774658 M 80.214162 285.796631 L 51.094835 264.736074 M 140.832816 84.463353 L 153.173243 81.162239 M 135.607828 215.692858 L 160.231938 197.725805 M 27.513924 247.416484 L 51.094835 264.736074 M 51.094835 264.736074 L 62.903193 291.999991 M 79.741326 148.786272 L 99.239965 151.951308 M 85.711454 119.865726 L 68.839652 119.225840 M 122.655583 116.774495 L 102.027264 124.589573 M 99.239965 151.951308 L 140.788873 144.725497 M 173.823510 145.774658 L 189.260830 122.439618 M 164.384459 110.111381 L 189.260830 122.439618 M 102.027264 124.589573 L 85.711454 119.865726 M 164.384459 110.111381 L 138.342489 101.265694 M 99.239965 151.951308 L 150.307496 169.673297 M 138.342489 101.265694 L 122.655583 116.774495 M 85.382466 219.653393 L 97.737079 280.386593 M 122.655583 116.774495 L 140.788873 144.725497 M 155.293499 167.144495 L 173.823510 145.774658 M 85.382466 219.653393 L 109.136057 212.185952 M 140.832816 84.463353 L 138.342489 101.265694 M 109.136057 212.185952 L 94.819424 183.839316 M 5.000000 261.240083 L 29.498932 278.339331 M 114.616481 275.926528 L 117.998113 244.835231 M 164.384459 110.111381 L 169.616182 91.062943 M 94.819424 183.839316 L 78.922291 190.893385 M 135.607828 215.692858 L 153.230851 266.656858 M 78.922291 190.893385 L 85.382466 219.653393 M 27.513924 247.416484 L 29.498932 278.339331 M 147.268345 68.854074 L 128.437822 73.934997 M 140.788873 144.725497 L 155.293499 167.144495 M 80.214162 285.796631 L 65.111929 235.790978 M 153.230851 266.656858 L 117.998113 244.835231 M 81.292448 104.214708 L 68.839652 119.225840 M 140.832816 84.463353 L 147.268345 68.854074 "
       id="path8"
       style="fill:none;stroke-width:0.03527778;stroke-miterlimit:4;stroke-dasharray:none" />
    <path
       class="outer"
       d="m 117.99811,244.83523 -2.64406,30.7661 -0.73757,0.3252 -16.879401,4.46006 -17.522917,5.41004 -17.310969,6.20336 -5.73545,-0.66178 -8.493859,-19.61119 2.420951,-6.99095 -21.595903,13.60326 -2.286086,5.30162 -15.085943,1.76526 L 8.67861,280.77559 5,261.24008 l 22.513924,-13.8236 37.598005,-11.6255 20.270537,-16.13759 -6.474174,-6.00823 -4.231766,-18.8394 4.245765,-3.91238 0.794739,-5.8228 10.435782,-4.63068 4.666612,3.39942 5.764476,0.32265 8.92547,25.88079 -0.37331,2.14319 1.60942,-1.87553 24.86235,5.38244 -26.09846,-5.6501 -9.37239,-30.34229 -0.897015,-27.74916 -3.650576,4.47286 -13.799712,-2.23998 -2.048351,-5.39792 0.413731,-5.75867 7.989809,-3.87803 7.251538,2.03814 -17.819688,-11.47266 -8.737064,-10.48921 -2.005097,-5.41413 8.347031,-10.06189 6.110862,0.46489 4.419006,15.65102 4.163384,-3.99994 10.291952,2.97979 1.86047,5.74399 0.92812,-5.69843 15.22929,-5.76964 4.47091,3.653 -1.46243,-5.58523 11.58118,-11.449678 5.56816,1.526098 -4.44976,-4.080992 1.57088,-10.598823 5.36921,-2.122522 -12.395,-10.528356 2.11893,-5.750551 12.62199,-3.40572 4.0896,4.075348 5.9049,12.308165 3.02151,20.976961 1.1626,-7.442266 6.84983,-5.652919 5.409,2.018928 2.203,2.230719 -7.43472,16.817718 7.98708,-18.067091 24.4742,14.744531 -7.58491,15.6508 2.57733,5.1663 -11.75272,17.76539 -6.26193,0.40335 0.87696,6.62081 -13.73818,15.84362 -5.66879,-1.0946 -6.24852,-0.78054 -8.25611,-21.63845 9.51863,24.9478 5.6765,1.05384 7.31531,20.6775 -3.06737,6.32116 29.50968,7.63823 5.17886,3.93842 1.92525,43.57828 -4.72407,6.35566 -19.51791,3.33045 -19.3729,4.09002 -37.91084,9.33815 z"
       id="path10"
       style="fill:none;stroke:#ff0000;stroke-width:0.03527778;stroke-linecap:butt;stroke-linejoin:bevel;stroke-dasharray:none;stroke-dashoffset:0;stroke-opacity:1;stroke-miterlimit:4"
       inkscape:connector-curvature="0"
       sodipodi:nodetypes="ccccccccccccccccccccccccccccccccccccccccccccccccccccccccccccccccccccccccccccccccccccccccc" />
  </g>
</svg>
