<?xml version="1.0" encoding="UTF-8" standalone="no"?>
<svg
   xmlns:dc="http://purl.org/dc/elements/1.1/"
   xmlns:cc="http://creativecommons.org/ns#"
   xmlns:rdf="http://www.w3.org/1999/02/22-rdf-syntax-ns#"
   xmlns:svg="http://www.w3.org/2000/svg"
   xmlns="http://www.w3.org/2000/svg"
   xmlns:sodipodi="http://sodipodi.sourceforge.net/DTD/sodipodi-0.dtd"
   xmlns:inkscape="http://www.inkscape.org/namespaces/inkscape"
   version="1.1"
   width="210.00mm"
   height="297.00mm"
   viewBox="0 0 210.00 297.00"
   id="svg36"
   sodipodi:docname="bear_papermod_page2.svg"
   inkscape:version="0.92.2 5c3e80d, 2017-08-06">
  <metadata
     id="metadata42">
    <rdf:RDF>
      <cc:Work
         rdf:about="">
        <dc:format>image/svg+xml</dc:format>
        <dc:type
           rdf:resource="http://purl.org/dc/dcmitype/StillImage" />
        <dc:title></dc:title>
      </cc:Work>
    </rdf:RDF>
  </metadata>
  <defs
     id="defs40" />
  <sodipodi:namedview
     pagecolor="#ffffff"
     bordercolor="#666666"
     borderopacity="1"
     objecttolerance="10"
     gridtolerance="10"
     guidetolerance="10"
     inkscape:pageopacity="0"
     inkscape:pageshadow="2"
     inkscape:window-width="1920"
     inkscape:window-height="985"
     id="namedview38"
     showgrid="false"
     inkscape:snap-global="false"
     inkscape:zoom="1.8101934"
     inkscape:cx="407.50873"
     inkscape:cy="204.33262"
     inkscape:window-x="0"
     inkscape:window-y="1"
     inkscape:window-maximized="1"
     inkscape:current-layer="svg36" />
  <style
     type="text/css"
     id="style2">
    path {
        fill: none;
        stroke-linecap: butt;
        stroke-linejoin: bevel;
        stroke-dasharray: none;
    }
    path.outer {
        stroke: #ff0000;
        stroke-dasharray: none;
        stroke-dashoffset: 0;
        stroke-width: 0.3;
        stroke-opacity: 1.0;
    }
    path.convex {
        stroke: #000000;
        stroke-dasharray: none;
        stroke-dashoffset:0;
        stroke-width:0.2;
        stroke-opacity: 1.0
    }
    path.concave {
        stroke: #000000;
        stroke-dasharray: none;
        stroke-dashoffset: 0;
        stroke-width: 0.2;
        stroke-opacity: 1.0
    }
    path.freestyle {
        stroke: #000000;
        stroke-dasharray: none;
        stroke-dashoffset: 0;
        stroke-width: 0.2;
        stroke-opacity: 1.0
    }
    path.outer_background {
        stroke: #ffffff;
        stroke-opacity: 1.0;
        stroke-width: 0.5
    }
    path.inner_background {
        stroke: #ffffff;
        stroke-opacity: 1.0;
        stroke-width: 0.2
    }
    path.sticker {
        fill: #e5e5e5;
        stroke: none;
        fill-opacity: 1.0;
    }
    path.arrow {
        fill: #000;
    }
    text {
        font-style: normal;
        fill: #000000;
        fill-opacity: 1.0;
        stroke: none;
    }
    text, tspan {
        text-anchor:middle;
    }
    </style>
  <g
     id="g34"
     style="fill:none;stroke-width:0.03527778;stroke-miterlimit:4;stroke-dasharray:none">
    <g
       id="g12"
       style="fill:none;stroke-width:0.03527778;stroke-miterlimit:4;stroke-dasharray:none">
      <path
         class="sticker"
         d=" M 109.597747 163.611616 L 106.233564 158.919553 L 114.987005 139.586578 L 126.073179 127.223830 Z M 132.337217 191.482003 L 116.788146 184.055041 L 117.266056 178.696568 Z M 148.210187 186.600710 L 150.040020 176.668729 L 160.118331 164.706673 L 165.802081 165.720622 Z M 143.277277 93.176941 L 146.067400 88.122393 L 155.921926 87.932969 L 159.080450 92.873166 Z M 126.073179 127.223830 L 120.305386 126.967023 L 113.303532 113.488327 L 116.409821 108.621682 Z M 178.258439 103.528122 L 177.357827 109.533380 L 167.618726 114.292870 L 162.829761 111.068095 Z M 159.646173 187.070790 L 162.707736 192.103202 L 156.266560 204.871978 L 150.502239 205.197434 Z M 106.360761 192.209738 L 104.516295 186.738784 L 108.843316 181.825410 L 114.503530 182.963538 Z M 82.263176 176.195021 L 82.038668 182.326245 L 70.916486 189.637835 L 65.757674 187.045525 Z M 117.696610 201.682004 L 135.461261 203.131224 L 136.088242 204.826365 Z M 165.802081 165.720622 L 169.684459 170.303273 L 165.250217 185.682262 L 159.646173 187.070790 Z M 75.859745 171.245988 L 80.182766 169.472928 L 82.889189 171.564634 L 82.263176 176.195021 Z M 145.506029 119.083191 L 148.585577 124.533664 L 141.179924 141.534965 L 135.443111 142.184774 Z M 123.200280 153.340156 L 122.539078 160.104836 L 114.914526 165.862228 L 109.597747 163.611616 Z M 159.080450 92.873166 L 165.133764 90.516428 L 178.163310 97.755413 L 178.258439 103.528122 Z M 139.258270 197.406734 L 137.763564 203.124831 L 136.293312 203.199144 Z M 156.754141 286.398370 L 141.884794 279.006151 L 126.608049 264.275179 L 128.000674 258.672155 Z M 38.441823 236.520874 L 37.258205 242.171745 L 18.493298 248.330439 L 14.191307 244.479957 Z M 103.268568 213.857914 L 102.916283 219.620655 L 90.378535 225.872221 L 79.823007 225.548337 Z M 123.042707 218.705798 L 115.531397 222.012374 L 104.881738 219.401467 L 103.268568 213.857914 Z M 136.088242 204.826365 L 140.024682 209.049839 L 138.162543 215.135026 L 132.536684 216.432343 Z M 150.502239 205.197434 L 156.774704 210.311669 L 158.603211 218.457068 L 154.356902 222.368869 Z M 65.757674 187.045525 L 67.409367 192.577730 L 58.268049 202.252354 L 52.191813 201.402831 Z M 123.106156 218.731689 L 123.073687 218.630868 L 126.634439 209.998305 Z M 159.933691 269.034176 L 165.569399 267.780445 L 178.258468 281.607823 L 176.616271 287.213360 Z M 128.000674 258.672155 L 132.109751 254.616446 L 141.034712 257.070529 L 144.435634 263.191250 Z M 132.536684 216.432343 L 130.963986 221.811372 L 126.978186 222.783196 L 123.106156 218.731689 Z M 176.616271 287.213360 L 171.313738 291.999991 L 159.433474 291.512517 L 156.754141 286.398370 Z "
         id="path4"
         style="fill:none;stroke-width:0.03527778;stroke-miterlimit:4;stroke-dasharray:none" />
      <path
         class="convex"
         d=" M 148.210187 186.600710 L 123.200280 153.340156 M 126.634439 209.998305 L 117.696610 201.682004 M 65.757674 187.045525 L 82.263176 176.195021 M 126.634439 209.998305 L 123.106156 218.731689 M 143.277277 93.176941 L 162.829761 111.068095 M 52.191813 201.402831 L 65.757674 187.045525 M 159.933691 269.034176 L 156.754141 286.398370 M 52.191813 201.402831 L 59.157305 239.728766 M 126.634439 209.998305 L 132.536684 216.432343 M 52.191813 201.402831 L 31.512239 206.470217 M 31.512239 206.470217 L 14.191307 244.479957 M 154.356902 222.368869 L 144.435634 263.191250 M 144.435634 263.191250 L 128.000674 258.672155 M 75.838958 200.282070 L 59.157305 239.728766 M 62.719923 183.421659 L 82.263176 176.195021 M 135.443111 142.184774 L 126.073179 127.223830 M 159.933691 269.034176 L 144.435634 263.191250 M 126.634439 209.998305 L 136.088242 204.826365 M 52.191813 201.402831 L 62.719923 183.421659 M 135.443111 142.184774 L 123.200280 153.340156 M 52.191813 201.402831 L 38.441823 236.520874 M 109.597747 163.611616 L 123.200280 153.340156 "
         id="path6"
         style="fill:none;stroke-width:0.03527778;stroke-miterlimit:4;stroke-dasharray:none" />
      <path
         class="concave"
         d=" M 126.073179 127.223830 L 123.200280 153.340156 M 117.696610 201.682004 L 123.042707 218.705798 M 79.823007 225.548337 L 103.268568 213.857914 M 31.512239 206.470217 L 38.441823 236.520874 M 103.268568 213.857914 L 85.070667 209.331292 M 114.503530 182.963538 L 106.360761 192.209738 M 159.080450 92.873166 L 143.277277 93.176941 M 162.829761 111.068095 L 159.080450 92.873166 M 117.696610 201.682004 L 114.503530 182.963538 M 123.106156 218.731689 L 132.536684 216.432343 M 139.258270 197.406734 L 132.337217 191.482003 M 136.293312 203.199144 L 139.258270 197.406734 M 103.268568 213.857914 L 75.838958 200.282070 M 150.502239 205.197434 L 159.646173 187.070790 M 75.838958 200.282070 L 85.070667 209.331292 M 159.646173 187.070790 L 148.210187 186.600710 M 62.719923 183.421659 L 65.757674 187.045525 M 132.536684 216.432343 L 136.088242 204.826365 M 156.754141 286.398370 L 176.616271 287.213360 M 176.616271 287.213360 L 159.933691 269.034176 M 150.502239 205.197434 L 139.258270 197.406734 M 14.191307 244.479957 L 38.441823 236.520874 M 128.000674 258.672155 L 156.754141 286.398370 M 116.409821 108.621682 L 126.073179 127.223830 M 103.268568 213.857914 L 117.696610 201.682004 M 156.754141 286.398370 L 144.435634 263.191250 M 145.506029 119.083191 L 116.409821 108.621682 M 117.696610 201.682004 L 106.360761 192.209738 M 103.268568 213.857914 L 106.360761 192.209738 M 82.263176 176.195021 L 75.859745 171.245988 M 159.646173 187.070790 L 165.802081 165.720622 M 150.502239 205.197434 L 137.612675 203.702393 M 165.802081 165.720622 L 148.210187 186.600710 M 52.191813 201.402831 L 48.436941 194.233599 M 154.356902 222.368869 L 141.736959 215.117450 M 154.356902 222.368869 L 138.817598 224.374826 M 136.088242 204.826365 L 117.696610 201.682004 M 138.817598 224.374826 L 144.435634 263.191250 M 103.268568 213.857914 L 123.042707 218.705798 M 117.696610 201.682004 L 132.337217 191.482003 M 132.337217 191.482003 L 123.200280 153.340156 M 136.293312 203.199144 L 132.337217 191.482003 M 117.266056 178.696568 L 132.337217 191.482003 M 162.829761 111.068095 L 178.258439 103.528122 M 178.258439 103.528122 L 159.080450 92.873166 M 135.443111 142.184774 L 145.506029 119.083191 M 145.506029 119.083191 L 126.073179 127.223830 M 154.356902 222.368869 L 150.502239 205.197434 M 150.502239 205.197434 L 141.736959 215.117450 M 148.210187 186.600710 L 132.337217 191.482003 M 126.073179 127.223830 L 109.597747 163.611616 M 145.506029 119.083191 L 143.277277 93.176941 M 139.258270 197.406734 L 148.210187 186.600710 M 150.502239 205.197434 L 148.210187 186.600710 "
         id="path8"
         style="fill:none;stroke-width:0.03527778;stroke-miterlimit:4;stroke-dasharray:none" />
      <path
         class="outer"
         d="m 171.31374,291.99999 -11.88027,-0.48747 -2.67933,-5.11415 -14.86935,-7.39222 -15.27674,-14.73097 1.39262,-5.60303 4.10908,-4.0557 8.19415,2.89257 4.13173,5.68223 -15.58149,-21.06127 9.96346,-17.75515 2.91936,-9.25738 -4.12429,-11.41506 1.6456,-6.29566 -1.49471,5.7181 -1.47025,0.0743 -18.5967,-1.51714 17.76465,1.44922 0.62698,1.69514 3.20563,4.22348 -1.13133,6.08519 -5.62586,1.29731 -1.57269,5.37903 -3.9858,0.97183 -3.87203,-4.05151 -0.0325,-0.10082 3.56075,-8.63257 -3.59173,8.7075 -7.51131,3.30657 -10.64966,-2.6109 -1.61317,-5.54356 -0.35229,5.76274 -12.537745,6.25157 -10.555528,-0.32388 5.24766,-16.21705 -25.913362,30.39748 -20.715482,-3.2079 -1.183618,5.65087 -18.764907,6.1587 -4.301991,-3.85048 L 5,216.2261 l 26.512239,-9.75588 16.924702,-12.23662 14.282982,-10.81194 13.139822,-12.17567 4.323021,-1.77306 2.706423,2.0917 -0.626013,4.63039 -0.224508,6.13122 -11.122182,7.31159 -5.158812,-2.59231 1.651693,5.53221 -7.972014,8.35916 -7.24554,0.46594 23.647145,-1.12076 30.521802,-8.07233 -1.84447,-5.47096 4.32703,-4.91337 5.66021,1.13813 17.83369,8.51846 -15.54907,-7.42696 0.47791,-5.35847 5.93422,-25.35641 -1.68434,7.057 -6.60141,5.46507 -5.31678,-2.25061 -3.36419,-4.69207 8.75344,-19.33297 11.08618,-12.36275 -5.76779,-0.25681 -7.00186,-13.47869 3.10629,-4.86665 26.86746,-15.444739 2.79012,-5.054548 9.85453,-0.189424 3.15852,4.940197 6.05331,-2.356738 13.02955,7.238985 0.0951,5.772707 -0.90061,6.00526 -9.7391,4.75949 -4.78897,-3.22477 -17.32373,8.01509 3.07955,5.45047 -7.40566,17.0013 -5.73681,0.64981 12.76708,44.41594 1.82983,-9.93198 10.07831,-11.96206 5.68375,1.01395 3.88238,4.58265 -4.43424,15.37899 -5.60405,1.38853 3.06157,5.03241 -6.44118,12.76878 -5.76432,0.32545 6.27246,5.11424 1.82851,8.1454 -4.24631,3.9118 5.57679,46.66531 5.63571,-1.25374 12.68907,13.82738 -1.6422,5.60554 z"
         id="path10"
         style="fill:none;stroke:#ff0000;stroke-width:0.03527778;stroke-linecap:butt;stroke-linejoin:bevel;stroke-miterlimit:4;stroke-dasharray:none;stroke-dashoffset:0;stroke-opacity:1"
         inkscape:connector-curvature="0"
         sodipodi:nodetypes="cccccccccccccccccccccccccccccccccccccccccccccccccccccccccccccccccccccccccccccccccccccccccccccccccccccccc" />
    </g>
    <g
       id="g22"
       style="fill:none;stroke-width:0.03527778;stroke-miterlimit:4;stroke-dasharray:none">
      <path
         class="sticker"
         d=" M 25.322861 41.994567 L 19.668891 40.825839 L 16.714663 31.903918 L 20.553809 27.591820 Z M 20.474691 68.896259 L 15.670519 72.098340 L 5.370990 67.004452 L 5.000000 61.242889 Z M 32.104035 87.767388 L 26.332908 87.932969 L 17.732528 73.976989 L 20.474691 68.896259 Z M 36.200370 43.631847 L 41.175135 46.561877 L 41.120742 52.829797 L 36.081915 57.282682 Z M 37.181933 22.461112 L 41.817197 30.443694 L 41.328703 40.979768 L 36.200370 43.631847 Z "
         id="path14"
         style="fill:none;stroke-width:0.03527778;stroke-miterlimit:4;stroke-dasharray:none" />
      <path
         class="convex"
         d=" M 25.322861 41.994567 L 37.181933 22.461112 M 36.081915 57.282682 L 20.474691 68.896259 M 20.474691 68.896259 L 32.104035 87.767388 M 5.000000 61.242889 L 20.474691 68.896259 "
         id="path16"
         style="fill:none;stroke-width:0.03527778;stroke-miterlimit:4;stroke-dasharray:none" />
      <path
         class="concave"
         d=" M 25.322861 41.994567 L 36.200370 43.631847 M 36.081915 57.282682 L 36.200370 43.631847 M 16.961972 50.957392 L 36.081915 57.282682 M 41.817208 75.924302 L 20.474691 68.896259 M 16.961972 50.957392 L 20.474691 68.896259 M 36.200370 43.631847 L 37.181933 22.461112 M 20.553809 27.591820 L 25.322861 41.994567 M 25.322861 41.994567 L 36.081915 57.282682 "
         id="path18"
         style="fill:none;stroke-width:0.03527778;stroke-miterlimit:4;stroke-dasharray:none" />
      <path
         class="outer"
         d=" M 41.817208 75.924302 L 32.104035 87.767388 L 26.332908 87.932969 L 17.732528 73.976989 L 20.474691 68.896259 L 15.670519 72.098340 L 5.370990 67.004452 L 5.000000 61.242889 L 16.961972 50.957392 L 25.322861 41.994567 L 19.668891 40.825839 L 16.714663 31.903918 L 20.553809 27.591820 L 37.181933 22.461112 L 41.817197 30.443694 L 41.328703 40.979768 L 36.200370 43.631847 L 41.175135 46.561877 L 41.120742 52.829797 L 36.081915 57.282682 Z "
         id="path20"
         style="fill:none;stroke-width:0.03527778;stroke-miterlimit:4;stroke-dasharray:none" />
    </g>
    <g
       id="g32"
       style="fill:none;stroke-width:0.03527778;stroke-miterlimit:4;stroke-dasharray:none">
      <path
         class="sticker"
         d=" M 57.371032 82.802276 L 53.531882 78.490163 L 56.486093 69.568272 L 62.140063 68.399529 Z M 41.817208 49.151252 L 42.188187 43.389688 L 52.487695 38.295801 L 57.291874 41.497852 Z M 57.291874 41.497852 L 54.549699 36.417122 L 63.150045 22.461141 L 68.921168 22.626693 Z M 72.899130 53.111414 L 77.937958 57.564314 L 77.992340 63.832234 L 73.017580 66.762249 Z M 73.017580 66.762249 L 78.145911 69.414328 L 78.634401 79.950388 L 73.999141 87.932969 Z "
         id="path24"
         style="fill:none;stroke-width:0.03527778;stroke-miterlimit:4;stroke-dasharray:none" />
      <path
         class="convex"
         d=" M 57.291874 41.497852 L 41.817208 49.151252 M 68.921168 22.626693 L 57.291874 41.497852 M 72.899130 53.111414 L 57.291874 41.497852 M 62.140063 68.399529 L 73.999141 87.932969 "
         id="path26"
         style="fill:none;stroke-width:0.03527778;stroke-miterlimit:4;stroke-dasharray:none" />
      <path
         class="concave"
         d=" M 62.140063 68.399529 L 73.017580 66.762249 M 62.140063 68.399529 L 72.899130 53.111414 M 73.017580 66.762249 L 72.899130 53.111414 M 62.140063 68.399529 L 57.371032 82.802276 M 53.779182 59.436734 L 72.899130 53.111414 M 53.779182 59.436734 L 57.291874 41.497852 M 73.999141 87.932969 L 73.017580 66.762249 M 78.634401 34.469749 L 57.291874 41.497852 "
         id="path28"
         style="fill:none;stroke-width:0.03527778;stroke-miterlimit:4;stroke-dasharray:none" />
      <path
         class="outer"
         d=" M 57.371032 82.802276 L 53.531882 78.490163 L 56.486093 69.568272 L 62.140063 68.399529 L 53.779182 59.436734 L 41.817208 49.151252 L 42.188187 43.389688 L 52.487695 38.295801 L 57.291874 41.497852 L 54.549699 36.417122 L 63.150045 22.461141 L 68.921168 22.626693 L 78.634401 34.469749 L 72.899130 53.111414 L 77.937958 57.564314 L 77.992340 63.832234 L 73.017580 66.762249 L 78.145911 69.414328 L 78.634401 79.950388 L 73.999141 87.932969 Z "
         id="path30"
         style="fill:none;stroke-width:0.03527778;stroke-miterlimit:4;stroke-dasharray:none" />
    </g>
  </g>
</svg>
