<?xml version="1.0" encoding="UTF-8" standalone="no"?>
<svg
   xmlns:dc="http://purl.org/dc/elements/1.1/"
   xmlns:cc="http://creativecommons.org/ns#"
   xmlns:rdf="http://www.w3.org/1999/02/22-rdf-syntax-ns#"
   xmlns:svg="http://www.w3.org/2000/svg"
   xmlns="http://www.w3.org/2000/svg"
   xmlns:sodipodi="http://sodipodi.sourceforge.net/DTD/sodipodi-0.dtd"
   xmlns:inkscape="http://www.inkscape.org/namespaces/inkscape"
   version="1.1"
   width="210.00mm"
   height="297.00mm"
   viewBox="0 0 210.00 297.00"
   id="svg56"
   sodipodi:docname="bear_papermod_page3.svg"
   inkscape:version="0.92.2 5c3e80d, 2017-08-06">
  <metadata
     id="metadata62">
    <rdf:RDF>
      <cc:Work
         rdf:about="">
        <dc:format>image/svg+xml</dc:format>
        <dc:type
           rdf:resource="http://purl.org/dc/dcmitype/StillImage" />
        <dc:title></dc:title>
      </cc:Work>
    </rdf:RDF>
  </metadata>
  <defs
     id="defs60" />
  <sodipodi:namedview
     pagecolor="#ffffff"
     bordercolor="#666666"
     borderopacity="1"
     objecttolerance="10"
     gridtolerance="10"
     guidetolerance="10"
     inkscape:pageopacity="0"
     inkscape:pageshadow="2"
     inkscape:window-width="1920"
     inkscape:window-height="985"
     id="namedview58"
     showgrid="false"
     inkscape:snap-global="true"
     inkscape:zoom="1.6819304"
     inkscape:cx="253.4081"
     inkscape:cy="238.25321"
     inkscape:window-x="0"
     inkscape:window-y="1"
     inkscape:window-maximized="1"
     inkscape:current-layer="svg56" />
  <style
     type="text/css"
     id="style2">
    path {
        fill: none;
        stroke-linecap: butt;
        stroke-linejoin: bevel;
        stroke-dasharray: none;
    }
    path.outer {
        stroke: #ff0000;
        stroke-dasharray: none;
        stroke-dashoffset: 0;
        stroke-width: 0.3;
        stroke-opacity: 1.0;
    }
    path.convex {
        stroke: #000000;
        stroke-dasharray: none;
        stroke-dashoffset:0;
        stroke-width:0.2;
        stroke-opacity: 1.0
    }
    path.concave {
        stroke: #000000;
        stroke-dasharray: none;
        stroke-dashoffset: 0;
        stroke-width: 0.2;
        stroke-opacity: 1.0
    }
    path.freestyle {
        stroke: #000000;
        stroke-dasharray: none;
        stroke-dashoffset: 0;
        stroke-width: 0.2;
        stroke-opacity: 1.0
    }
    path.outer_background {
        stroke: #ffffff;
        stroke-opacity: 1.0;
        stroke-width: 0.5
    }
    path.inner_background {
        stroke: #ffffff;
        stroke-opacity: 1.0;
        stroke-width: 0.2
    }
    path.sticker {
        fill: #e5e5e5;
        stroke: none;
        fill-opacity: 1.0;
    }
    path.arrow {
        fill: #000;
    }
    text {
        font-style: normal;
        fill: #000000;
        fill-opacity: 1.0;
        stroke: none;
    }
    text, tspan {
        text-anchor:middle;
    }
    </style>
  <g
     id="g54"
     style="fill:none;stroke-width:0.03527778;stroke-miterlimit:4;stroke-dasharray:none">
    <g
       id="g12"
       style="fill:none;stroke-width:0.03527778;stroke-miterlimit:4;stroke-dasharray:none">
      <path
         class="sticker"
         d=" M 188.240712 269.101224 L 193.532293 271.410423 L 194.500779 280.012053 L 189.855163 283.440107 Z M 165.111725 233.562439 L 161.737968 228.877227 L 166.687896 217.885169 L 175.235947 211.080055 Z M 169.901763 287.715839 L 165.453737 291.396644 L 155.127858 287.558168 L 154.164200 281.865655 Z M 191.793774 205.117273 L 194.500779 210.216816 L 187.006568 222.191903 L 181.235765 221.987995 Z M 181.235765 221.987995 L 186.676358 223.920154 L 189.225589 237.744431 L 184.978222 242.282956 Z M 184.978222 242.282956 L 190.124367 244.900304 L 190.691357 255.569733 L 185.858433 258.846658 Z M 185.858433 258.846658 L 191.381966 260.527092 L 192.457770 265.157917 L 188.240712 269.101224 Z M 189.855163 283.440107 L 188.080137 288.933978 L 173.772086 291.999991 L 169.901763 287.715839 Z "
         id="path4"
         style="fill:none;stroke-width:0.03527778;stroke-miterlimit:4;stroke-dasharray:none" />
      <path
         class="convex"
         d=" M 184.978222 242.282956 L 165.111725 233.562439 M 169.901763 287.715839 L 188.240712 269.101224 M 188.240712 269.101224 L 154.164200 281.865655 M 188.240712 269.101224 L 154.585903 260.086204 M 185.858433 258.846658 L 154.585903 260.086204 "
         id="path6"
         style="fill:none;stroke-width:0.03527778;stroke-miterlimit:4;stroke-dasharray:none" />
      <path
         class="concave"
         d=" M 181.235765 221.987995 L 191.793774 205.117273 M 189.855163 283.440107 L 188.240712 269.101224 M 169.901763 287.715839 L 189.855163 283.440107 M 185.858433 258.846658 L 165.111725 233.562439 M 184.978222 242.282956 L 181.235765 221.987995 M 175.235947 211.080055 L 165.111725 233.562439 M 181.235765 221.987995 L 165.111725 233.562439 M 188.240712 269.101224 L 185.858433 258.846658 M 154.164200 281.865655 L 169.901763 287.715839 M 181.235765 221.987995 L 175.235947 211.080055 M 185.858433 258.846658 L 184.978222 242.282956 "
         id="path8"
         style="fill:none;stroke-width:0.03527778;stroke-miterlimit:4;stroke-dasharray:none" />
      <path
         class="outer"
         d=" M 194.500779 210.216816 L 187.006568 222.191903 L 181.235765 221.987995 L 186.676358 223.920154 L 189.225589 237.744431 L 184.978222 242.282956 L 190.124367 244.900304 L 190.691357 255.569733 L 185.858433 258.846658 L 191.381966 260.527092 L 192.457770 265.157917 L 188.240712 269.101224 L 193.532293 271.410423 L 194.500779 280.012053 L 189.855163 283.440107 L 188.080137 288.933978 L 173.772086 291.999991 L 169.901763 287.715839 L 165.453737 291.396644 L 155.127858 287.558168 L 154.164200 281.865655 L 154.585903 260.086204 L 165.111725 233.562439 L 161.737968 228.877227 L 166.687896 217.885169 L 175.235947 211.080055 L 191.793774 205.117273 Z "
         id="path10"
         style="fill:none;stroke-width:0.03527778;stroke-miterlimit:4;stroke-dasharray:none" />
    </g>
    <g
       id="g22"
       style="fill:none;stroke-width:0.03527778;stroke-miterlimit:4;stroke-dasharray:none">
      <path
         class="sticker"
         d=" M 134.966959 142.307843 L 129.233030 141.632999 L 121.425089 123.492296 L 124.876489 118.863980 Z M 105.674719 80.569888 L 98.030423 72.453017 L 94.253873 59.816371 L 98.217909 55.618788 Z M 142.280315 85.156257 L 142.001902 85.202004 L 127.276239 66.844488 Z M 139.150073 47.679896 L 143.079658 43.450038 L 160.528545 47.443922 L 162.226920 52.961971 Z M 107.578878 47.608177 L 110.476983 42.614753 L 133.439247 42.666907 L 139.150073 47.679896 Z "
         id="path14"
         style="fill:none;stroke-width:0.03527778;stroke-miterlimit:4;stroke-dasharray:none" />
      <path
         class="convex"
         d=" M 142.092173 85.308756 L 151.985635 104.161884 M 127.276239 66.844488 L 108.757404 105.462695 M 142.092173 85.308756 L 108.757404 105.462695 M 142.092173 85.308756 L 124.876489 118.863980 M 151.985635 104.161884 L 134.966959 142.307843 M 107.578878 47.608177 L 114.382339 65.916981 "
         id="path16"
         style="fill:none;stroke-width:0.03527778;stroke-miterlimit:4;stroke-dasharray:none" />
      <path
         class="concave"
         d=" M 98.217909 55.618788 L 105.674719 80.569888 M 151.985635 104.161884 L 124.876489 118.863980 M 127.276239 66.844488 L 142.280315 85.156257 M 124.876489 118.863980 L 134.966959 142.307843 M 98.217909 55.618788 L 114.382339 65.916981 M 147.476648 66.099430 L 127.276239 66.844488 M 147.476648 66.099430 L 139.150073 47.679896 M 107.578878 47.608177 L 127.276239 66.844488 M 107.578878 47.608177 L 147.476648 66.099430 M 162.226920 52.961971 L 139.150073 47.679896 M 139.150073 47.679896 L 107.578878 47.608177 M 127.276239 66.844488 L 114.382339 65.916981 "
         id="path18"
         style="fill:none;stroke-width:0.03527778;stroke-miterlimit:4;stroke-dasharray:none" />
      <path
         class="outer"
         d=" M 98.030423 72.453017 L 94.253873 59.816371 L 98.217909 55.618788 L 107.578878 47.608177 L 110.476983 42.614753 L 133.439247 42.666907 L 139.150073 47.679896 L 143.079658 43.450038 L 160.528545 47.443922 L 162.226920 52.961971 L 147.476648 66.099430 L 142.280315 85.156257 L 142.001902 85.202004 L 127.276239 66.844488 L 142.092173 85.308756 L 149.951090 83.376358 L 151.985635 104.161884 L 162.226920 130.490373 L 134.966959 142.307843 L 129.233030 141.632999 L 121.425089 123.492296 L 124.876489 118.863980 L 108.757404 105.462695 L 114.382339 65.916981 L 105.674719 80.569888 Z "
         id="path20"
         style="fill:none;stroke-width:0.03527778;stroke-miterlimit:4;stroke-dasharray:none" />
    </g>
    <g
       id="g32"
       style="fill:none;stroke-width:0.03527778;stroke-miterlimit:4;stroke-dasharray:none">
      <path
         class="sticker"
         d=" M 56.792364 186.638276 L 56.818594 180.864836 L 63.208976 177.213962 L 68.195810 180.123399 Z M 57.558828 178.810346 L 57.238922 184.574979 L 43.989283 191.274735 L 39.156915 188.115369 Z M 91.316056 156.126047 L 94.647919 151.410962 L 114.242961 153.210293 L 121.044402 158.855881 Z M 112.993610 176.241319 L 88.709575 187.263290 L 88.153993 186.846445 Z M 88.153993 186.846445 L 83.005336 189.458842 L 69.850837 180.884513 L 70.162763 175.119440 Z M 121.044402 158.855881 L 124.713701 153.433393 L 143.328254 151.435758 L 146.732037 156.099196 Z M 117.489872 212.902400 L 149.379437 194.496254 L 152.209227 196.045662 Z M 16.607918 203.509937 L 17.853185 189.552042 L 31.109075 162.376071 L 36.868525 161.973546 Z M 56.484220 146.156813 L 60.787567 142.307843 L 73.436734 146.464269 L 74.618367 152.115564 Z M 35.735176 248.461234 L 40.600465 245.352815 L 60.804666 255.837138 L 61.063991 261.604811 Z M 121.069741 278.127055 L 114.578140 283.347140 L 94.969039 284.003506 L 91.916633 279.102872 Z M 112.984669 260.757501 L 82.876061 256.147872 L 82.348046 254.743095 Z M 61.063991 261.604811 L 62.575725 256.032738 L 78.053159 251.937452 L 82.122845 256.032686 Z M 146.762763 280.833091 L 143.368159 285.503219 L 125.220043 283.591832 L 121.069741 278.127055 Z M 150.949200 242.905649 L 150.313933 243.207390 L 116.796982 236.789520 Z M 37.237805 275.915856 L 31.470430 275.650020 L 17.351840 248.367059 L 15.638052 234.176169 Z "
         id="path24"
         style="fill:none;stroke-width:0.03527778;stroke-miterlimit:4;stroke-dasharray:none" />
      <path
         class="convex"
         d=" M 146.762763 280.833091 L 112.984669 260.757501 M 58.584348 218.946877 L 56.792364 186.638276 M 36.868525 161.973546 L 39.156915 188.115369 M 74.618367 152.115564 L 70.162763 175.119440 M 37.237805 275.915856 L 61.063991 261.604811 M 74.963023 284.705902 L 61.063991 261.604811 M 56.484220 146.156813 L 57.558828 178.810346 M 146.732037 156.099196 L 112.993610 176.241319 M 68.954823 217.134411 L 68.195810 180.123399 M 68.954823 217.134411 L 56.792364 186.638276 M 42.185259 221.437114 L 37.283846 193.319070 M 36.868525 161.973546 L 57.558828 178.810346 M 68.954823 217.134411 L 88.399646 187.404315 M 37.237805 275.915856 L 35.735176 248.461234 M 116.796982 236.789520 L 149.739509 219.431992 M 117.489872 212.902400 L 112.993610 176.241319 "
         id="path26"
         style="fill:none;stroke-width:0.03527778;stroke-miterlimit:4;stroke-dasharray:none" />
      <path
         class="concave"
         d=" M 91.316056 156.126047 L 88.153993 186.846445 M 91.916633 279.102872 L 82.122845 256.032686 M 83.311987 218.577261 L 88.399646 187.404315 M 87.077473 238.633211 L 112.984669 260.757501 M 58.584348 218.946877 L 37.283846 193.319070 M 121.044402 158.855881 L 91.316056 156.126047 M 82.348046 254.743095 L 112.984669 260.757501 M 112.984669 260.757501 L 91.916633 279.102872 M 112.984669 260.757501 L 121.069741 278.127055 M 112.993610 176.241319 L 121.044402 158.855881 M 121.069741 278.127055 L 146.762763 280.833091 M 91.916633 279.102872 L 121.069741 278.127055 M 70.162763 175.119440 L 88.153993 186.846445 M 39.156915 188.115369 L 57.558828 178.810346 M 87.077473 238.633211 L 116.796982 236.789520 M 116.796982 236.789520 L 117.489872 212.902400 M 87.077473 238.633211 L 117.489872 212.902400 M 61.063991 261.604811 L 35.735176 248.461234 M 91.316056 156.126047 L 70.162763 175.119440 M 36.868525 161.973546 L 16.607918 203.509937 M 154.164200 265.236336 L 112.984669 260.757501 M 146.732037 156.099196 L 121.044402 158.855881 M 88.153993 186.846445 L 112.993610 176.241319 M 149.739509 219.431992 L 117.489872 212.902400 M 116.796982 236.789520 L 112.984669 260.757501 M 112.993610 176.241319 L 91.316056 156.126047 M 68.195810 180.123399 L 56.792364 186.638276 M 82.122845 256.032686 L 74.963023 284.705902 M 23.074199 229.225519 L 21.175013 208.623658 M 74.618367 152.115564 L 56.484220 146.156813 M 150.873308 243.315290 L 112.984669 260.757501 M 154.164200 171.681325 L 112.993610 176.241319 M 150.916536 193.608801 L 112.993610 176.241319 M 83.311987 218.577261 L 117.489872 212.902400 M 152.209227 196.045662 L 117.489872 212.902400 M 117.489872 212.902400 L 88.399646 187.404315 M 116.796982 236.789520 L 150.949200 242.905649 M 15.638052 234.176169 L 37.237805 275.915856 M 82.122845 256.032686 L 61.063991 261.604811 M 55.948571 291.999991 L 61.063991 261.604811 M 42.185259 221.437114 L 21.175013 208.623658 M 56.484220 146.156813 L 70.162763 175.119440 "
         id="path28"
         style="fill:none;stroke-width:0.03527778;stroke-miterlimit:4;stroke-dasharray:none" />
      <path
         class="outer"
         d="m 57.238922,184.57498 5.970054,-7.36102 4.986834,2.90944 20.203836,7.28091 24.593964,-11.16299 -24.284035,11.02197 -0.555582,-0.41685 0.245653,0.55787 -20.203836,-7.28091 1.966953,-5.00396 -12.603935,3.69091 -0.319906,5.76463 -13.249639,6.69975 -4.832368,-3.15936 -22.548997,15.39457 1.245267,-13.9579 13.25589,-27.17597 5.75945,-0.40252 19.615695,-15.81674 4.303347,-3.84897 12.649167,4.15643 1.181633,5.65129 16.697689,4.01049 3.331863,-4.71509 19.595041,1.79933 6.80144,5.64559 3.6693,-5.42249 18.61455,-1.99763 3.40379,4.66344 7.43216,15.58212 -3.24766,21.92748 -33.42667,19.2936 31.88957,-18.40615 2.82979,1.54941 -2.46972,23.38633 1.20969,23.47366 -0.63527,0.30174 -33.51695,-6.41787 34.07633,6.52577 3.29089,21.92105 -7.40144,15.59675 -3.3946,4.67013 -18.14812,-1.91139 -4.1503,-5.46478 -6.4916,5.22009 -19.609101,0.65637 -3.052406,-4.90064 -16.95361,5.60303 -19.014452,7.29409 -18.710766,-16.08413 -5.767375,-0.26584 -14.11859,-27.28296 -1.713788,-14.19089 20.097124,14.28506 4.865289,-3.10842 20.204201,10.48433 0.259325,5.76767 1.511734,-5.57207 15.477434,-4.09529 4.069686,4.09524 30.861825,4.72481 -30.108609,-4.60963 -0.528015,-1.40478 4.729427,-16.10988 -3.765486,-20.05595 -14.357164,-1.44285 -10.370475,1.81247 -16.399089,2.49023 -19.11106,7.78841 L 5,220.8938 21.175013,208.62366 37.283846,193.31907 56.792364,186.63828 Z"
         id="path30"
         style="fill:none;stroke:#ff0000;stroke-width:0.03527778;stroke-linecap:butt;stroke-linejoin:bevel;stroke-dasharray:none;stroke-dashoffset:0;stroke-opacity:1;stroke-miterlimit:4"
         inkscape:connector-curvature="0"
         sodipodi:nodetypes="cccccccccccccccccccccccccccccccccccccccccccccccccccccccccccccccccccccccccc" />
    </g>
    <g
       id="g42"
       style="fill:none;stroke-width:0.03527778;stroke-miterlimit:4;stroke-dasharray:none">
      <path
         class="sticker"
         d=" M 29.168735 113.494570 L 37.775417 125.788893 L 35.953465 128.347899 Z M 10.721655 118.530552 L 5.573877 115.615408 L 5.000000 103.822525 L 9.853779 100.696157 Z M 80.689487 64.639906 L 80.752236 65.821911 L 64.937902 74.884336 Z M 92.619573 92.733855 L 94.253865 98.271216 L 80.378567 112.863879 L 74.765918 111.510540 Z M 74.765918 111.510540 L 72.421712 117.935221 L 43.894176 130.030002 L 38.533484 126.871969 Z M 35.953465 128.347899 L 35.297292 134.083982 L 16.360275 142.307843 L 11.720761 138.871531 Z M 34.648134 42.195256 L 35.589348 36.498989 L 41.657654 34.215922 L 46.120164 37.879164 Z M 41.714047 56.300323 L 35.950652 55.958773 L 31.470652 47.015722 L 34.648134 42.195256 Z M 11.720761 138.871531 L 6.582058 136.170412 L 5.869296 121.659125 L 10.721655 118.530552 Z M 72.867637 32.960380 L 78.415384 31.361665 L 94.253873 46.616460 L 92.864526 52.220295 Z "
         id="path34"
         style="fill:none;stroke-width:0.03527778;stroke-miterlimit:4;stroke-dasharray:none" />
      <path
         class="convex"
         d=" M 58.553574 46.573649 L 41.714047 56.300323 M 64.937902 74.884336 L 24.216237 75.307677 M 46.120164 37.879164 L 41.714047 56.300323 M 80.689487 64.639906 L 72.867637 32.960380 M 35.953465 128.347899 L 10.721655 118.530552 "
         id="path36"
         style="fill:none;stroke-width:0.03527778;stroke-miterlimit:4;stroke-dasharray:none" />
      <path
         class="concave"
         d=" M 58.553574 46.573649 L 64.937902 74.884336 M 24.216237 75.307677 L 29.168735 113.494570 M 9.853779 100.696157 L 10.721655 118.530552 M 92.864526 52.220295 L 72.867637 32.960380 M 41.714047 56.300323 L 64.937902 74.884336 M 46.120164 37.879164 L 34.648134 42.195256 M 9.853779 100.696157 L 29.168735 113.494570 M 34.648134 42.195256 L 41.714047 56.300323 M 10.721655 118.530552 L 11.720761 138.871531 M 11.720761 138.871531 L 35.953465 128.347899 M 35.953465 128.347899 L 29.168735 113.494570 M 74.765918 111.510540 L 92.619573 92.733855 M 74.765918 111.510540 L 29.168735 113.494570 M 38.533484 126.871969 L 74.765918 111.510540 M 74.765918 111.510540 L 64.937902 74.884336 M 10.721655 118.530552 L 29.168735 113.494570 M 64.937902 74.884336 L 29.168735 113.494570 M 64.937902 74.884336 L 80.689487 64.639906 M 80.689487 64.639906 L 58.553574 46.573649 "
         id="path38"
         style="fill:none;stroke-width:0.03527778;stroke-miterlimit:4;stroke-dasharray:none" />
      <path
         class="outer"
         d=" M 37.775417 125.788893 L 35.953465 128.347899 L 35.297292 134.083982 L 16.360275 142.307843 L 11.720761 138.871531 L 6.582058 136.170412 L 5.869296 121.659125 L 10.721655 118.530552 L 5.573877 115.615408 L 5.000000 103.822525 L 9.853779 100.696157 L 24.216237 75.307677 L 41.714047 56.300323 L 35.950652 55.958773 L 31.470652 47.015722 L 34.648134 42.195256 L 35.589348 36.498989 L 41.657654 34.215922 L 46.120164 37.879164 L 58.553574 46.573649 L 72.867637 32.960380 L 78.415384 31.361665 L 94.253873 46.616460 L 92.864526 52.220295 L 80.689487 64.639906 L 80.752236 65.821911 L 64.937902 74.884336 L 81.240748 65.542052 L 92.619573 92.733855 L 94.253865 98.271216 L 80.378567 112.863879 L 74.765918 111.510540 L 72.421712 117.935221 L 43.894176 130.030002 L 38.533484 126.871969 L 29.168735 113.494570 Z "
         id="path40"
         style="fill:none;stroke-width:0.03527778;stroke-miterlimit:4;stroke-dasharray:none" />
    </g>
    <g
       id="g52"
       style="fill:none;stroke-width:0.03527778;stroke-miterlimit:4;stroke-dasharray:none">
      <path
         class="sticker"
         d=" M 196.030666 98.593424 L 200.952237 101.611937 L 200.487097 119.120072 L 195.406129 122.101511 Z M 196.085130 137.403275 L 192.507033 142.307843 L 182.578077 142.037909 L 179.828276 136.961306 Z M 195.406129 122.101511 L 200.529193 124.763782 L 200.952237 134.297709 L 196.085130 137.403275 Z M 189.934080 75.893040 L 195.511703 77.384110 L 200.110798 94.508584 L 196.030666 98.593424 Z M 171.316330 65.082724 L 172.804360 59.504266 L 182.395642 56.922729 L 187.020321 60.855906 Z M 187.020321 60.855906 L 192.478170 62.738786 L 194.293608 72.107847 L 189.934080 75.893040 Z "
         id="path44"
         style="fill:none;stroke-width:0.03527778;stroke-miterlimit:4;stroke-dasharray:none" />
      <path
         class="convex"
         d=" M 179.828276 136.961306 L 195.406129 122.101511 M 189.934080 75.893040 L 164.559846 80.667029 M 195.406129 122.101511 L 169.618686 123.386140 M 171.316330 65.082724 L 189.934080 75.893040 "
         id="path46"
         style="fill:none;stroke-width:0.03527778;stroke-miterlimit:4;stroke-dasharray:none" />
      <path
         class="concave"
         d=" M 187.020321 60.855906 L 171.316330 65.082724 M 196.085130 137.403275 L 195.406129 122.101511 M 195.406129 122.101511 L 196.030666 98.593424 M 179.828276 136.961306 L 196.085130 137.403275 M 164.559846 80.667029 L 196.030666 98.593424 M 196.030666 98.593424 L 169.618686 123.386140 M 196.030666 98.593424 L 162.226920 102.602388 M 196.030666 98.593424 L 189.934080 75.893040 M 189.934080 75.893040 L 187.020321 60.855906 "
         id="path48"
         style="fill:none;stroke-width:0.03527778;stroke-miterlimit:4;stroke-dasharray:none" />
      <path
         class="outer"
         d=" M 169.618686 123.386140 L 162.226920 102.602388 L 164.559846 80.667029 L 171.316330 65.082724 L 172.804360 59.504266 L 182.395642 56.922729 L 187.020321 60.855906 L 192.478170 62.738786 L 194.293608 72.107847 L 189.934080 75.893040 L 195.511703 77.384110 L 200.110798 94.508584 L 196.030666 98.593424 L 200.952237 101.611937 L 200.487097 119.120072 L 195.406129 122.101511 L 200.529193 124.763782 L 200.952237 134.297709 L 196.085130 137.403275 L 192.507033 142.307843 L 182.578077 142.037909 L 179.828276 136.961306 Z "
         id="path50"
         style="fill:none;stroke-width:0.03527778;stroke-miterlimit:4;stroke-dasharray:none" />
    </g>
  </g>
</svg>
